<?xml version="1.0" encoding="UTF-8"?>
<!DOCTYPE svg PUBLIC "-//W3C//DTD SVG 1.1//EN" "http://www.w3.org/Graphics/SVG/1.1/DTD/svg11.dtd">
<!-- Creator: CorelDRAW 2020 (64 Bit) -->
<svg xmlns="http://www.w3.org/2000/svg" xml:space="preserve" width="84.6666mm" height="84.6666mm" version="1.1" style="shape-rendering:geometricPrecision; text-rendering:geometricPrecision; image-rendering:optimizeQuality; fill-rule:evenodd; clip-rule:evenodd"
viewBox="0 0 8466.66 8466.66"
 xmlns:xlink="http://www.w3.org/1999/xlink"
 xmlns:xodm="http://www.corel.com/coreldraw/odm/2003">
 <defs>
  <style type="text/css">
   <![CDATA[
    .fil0 {fill:black}
    .fil1 {fill:white}
   ]]>
  </style>
 </defs>
 <g id="Camada_x0020_1">
  <metadata id="CorelCorpID_0Corel-Layer"/>
  <g id="_2475454715712">
   <path class="fil0" d="M4233.33 774.69c467.52,0 914.1,93.27 1322.12,262.28 424.19,175.71 805.24,432.51 1123.48,750.76 318.25,318.24 575.05,699.29 750.76,1123.48 169.01,408.02 262.28,854.6 262.28,1322.12 0,467.52 -93.27,914.1 -262.28,1322.12 -175.71,424.19 -432.51,805.24 -750.76,1123.48 -318.24,318.25 -699.29,575.05 -1123.48,750.76 -408.02,169.01 -854.6,262.28 -1322.12,262.28 -102.4,0 -208.11,-5.12 -316.69,-15.11 -106.86,-9.84 -211.99,-24.43 -315.12,-43.52 -105.87,-19.6 -208.73,-43.6 -308.34,-71.76 -85.53,-24.18 -171.66,-52.41 -258.14,-84.48l-402 -178.41c-280.9,-146.93 -538.69,-330.83 -766.77,-545.09 -228.38,-214.54 -427.95,-460.57 -592.04,-731.42 -161.13,-265.96 -287.44,-554.78 -372.58,-860.11 -82.73,-296.67 -126.96,-608.2 -126.96,-928.74 0,-320.54 44.23,-632.07 126.96,-928.74 85.14,-305.33 211.45,-594.15 372.58,-860.11 164.09,-270.85 363.66,-516.88 592.04,-731.42 228.08,-214.26 485.87,-398.16 766.77,-545.09l402 -178.41c86.48,-32.07 172.61,-60.3 258.14,-84.48 99.61,-28.16 202.47,-52.16 308.34,-71.76 103.13,-19.09 208.26,-33.68 315.12,-43.52 108.58,-9.99 214.29,-15.11 316.69,-15.11z"/>
   <path class="fil1" d="M4233.33 1049.86c1758.18,0 3183.47,1425.29 3183.47,3183.47 0,1758.18 -1425.29,3183.47 -3183.47,3183.47 -402.99,0 -788.4,-75.07 -1143.26,-211.68l0 -1120.22 0.26 0.16 0 -3703.46 -0.26 0.16 0 -1120.22c354.86,-136.61 740.27,-211.68 1143.26,-211.68zm-1473.46 6005.91c-1016.34,-531.64 -1710.01,-1595.97 -1710.01,-2822.44 0,-1226.47 693.67,-2290.8 1710.01,-2822.44l0 1221.52c-431.85,397.6 -702.47,967.63 -702.47,1600.92 0,633.29 270.62,1203.32 702.47,1600.92l0 1221.52z"/>
   <path class="fil0" d="M4322.23 2334.6l0 3797.46c225.88,-10.31 440.94,-59.71 638.53,-141.55 231.59,-95.92 440.77,-237.26 616.63,-413.12 175.86,-175.86 317.2,-385.04 413.12,-616.63 92.51,-223.36 143.58,-469.03 143.58,-727.43 0,-258.4 -51.07,-504.07 -143.58,-727.43 -95.92,-231.59 -237.26,-440.77 -413.12,-616.63 -175.86,-175.86 -385.04,-317.2 -616.63,-413.12 -197.59,-81.84 -412.65,-131.24 -638.53,-141.55z"/>
  </g>
 </g>
</svg>
