<?xml version="1.0" encoding="UTF-8"?>
<!DOCTYPE svg PUBLIC "-//W3C//DTD SVG 1.1//EN" "http://www.w3.org/Graphics/SVG/1.1/DTD/svg11.dtd">
<!-- Creator: CorelDRAW 2020 (64 Bit) -->
<svg xmlns="http://www.w3.org/2000/svg" xml:space="preserve" width="8.4666mm" height="8.4666mm" version="1.1" style="shape-rendering:geometricPrecision; text-rendering:geometricPrecision; image-rendering:optimizeQuality; fill-rule:evenodd; clip-rule:evenodd"
viewBox="0 0 846.66 846.66"
 xmlns:xlink="http://www.w3.org/1999/xlink"
 xmlns:xodm="http://www.corel.com/coreldraw/odm/2003">
 <defs>
  <style type="text/css">
   <![CDATA[
    .fil0 {fill:#c8d6e5}
   ]]>
  </style>
 </defs>
 <g id="Camada_x0020_1">
  <metadata id="CorelCorpID_0Corel-Layer"/>
  <path class="fil0" d="M-0 418.38c0,71.03 6.33,108.83 29.54,173.86 1.96,5.5 3.71,8.37 6.31,13.53 2.79,5.55 3.89,9.31 6.57,14.93 13.66,28.76 37.67,66.02 59.69,89.13 4.35,4.56 5.68,7.23 9.89,11.61 7.37,7.65 14.01,13.94 21.53,21.46 14.34,14.34 30.24,27.27 47.38,38.61 17.4,11.5 33.96,22.06 52.8,31.54 12.82,6.45 51.56,23.69 65.6,23.69 11.78,0 19.84,-10.74 19.84,-23.15l0 -77.72c-9.95,0.23 -16.05,3.31 -28.11,3.31 -51.11,0 -93.65,-2.65 -115.3,-53.37 -10.36,-24.3 -24.33,-48.12 -47.1,-62.04 -6.54,-4 -15.44,-11.14 -16.19,-20.19 21.08,-14.12 54.08,5.52 69.08,20.21 20.06,19.65 35.46,67.03 82.58,64.85 20.16,-0.93 35.3,-0.43 51.37,-9.35 9.76,-5.42 4.8,-22.53 18.83,-44.02 3.71,-5.69 9.47,-8.3 11.3,-15.15 -12.35,-1.03 -29.35,-4.29 -41.22,-6.73 -43.99,-9.05 -81.88,-28.12 -110.41,-61.57 -11.88,-13.94 -19.69,-30.59 -25.95,-48.47 -21.69,-61.9 -21.39,-135.07 16.48,-189.85 13.96,-20.2 12.77,-8.83 6.92,-33.64 -6.34,-26.91 0.04,-94.65 13.62,-94.65 24.44,0 41.32,8.08 61.42,16.3 29.07,11.9 45.62,29.52 56.27,27.23 25.15,-5.41 47.38,-12.32 74.13,-12.11 12.55,0.11 19.49,-2.42 33.08,-1.66 29.61,1.67 61.3,4.9 89.98,12.65 6.57,1.77 7.28,2.99 12.24,0.42 20.53,-10.61 21.97,-16.13 55.81,-30.3 21.24,-8.9 27.19,-12.53 56.94,-12.53 6.16,26.48 13.22,21.95 13.22,71.11 0,8.57 -0.95,14.49 -2.61,22.19 -1.2,5.54 -5.46,15.83 -5.07,18.9 0.8,6.18 73.23,70.53 28.57,204.69 -16.29,48.9 -51.8,81.15 -98.6,99.83 -22.73,9.08 -55.55,17.62 -81.03,18.19 10.81,16.15 18.74,17.15 24.41,41.73 9.12,39.57 -1.58,134.76 5.41,159.95 2.74,9.87 10.59,14.94 21.44,14.94 10.74,0 51.8,-18.49 61.21,-23.12 13.82,-6.8 28.73,-14.21 41.08,-23.41l36.4 -26.44c15.88,-12.66 30.1,-26.97 44.48,-41.51 4.42,-4.46 5.59,-7.1 9.89,-11.61 23.38,-24.54 45.19,-58.55 59.98,-88.84 24.84,-50.84 42.96,-111.81 42.96,-170.36 0,-56.35 -3.92,-111.57 -24.57,-162.29 -10.06,-24.73 -19.93,-46.58 -32.79,-69.74l-20.35 -30.91c-14.61,-20.71 -29.64,-38.68 -47.55,-56.62 -38.72,-38.78 -87.81,-70.97 -138.6,-91.27 -6.72,-2.68 -13.27,-5.09 -19.15,-7.3 -72.25,-27.11 -164.21,-30.11 -239.52,-11.8 -39.84,9.69 -74.57,24.55 -110.26,43.53 -32.11,17.07 -63.05,41.23 -88.61,66.84 -25.24,25.28 -49.31,55.22 -67.32,86.46 -6.36,11.05 -11.64,21.53 -17.7,33.56 -20.14,39.95 -40.24,107.28 -40.24,166.47z"/>
 </g>
</svg>
